<svg version="1.1" id="Layer_1" xmlns="http://www.w3.org/2000/svg" xmlns:xlink="http://www.w3.org/1999/xlink" x="0px" y="0px"
	 width="100%" viewBox="0 0 1074 952" enable-background="new 0 0 1074 952" xml:space="preserve">
<path fill="#FAF5EF" opacity="1.000000" stroke="none" 
	d="
M299.000000,1.000000 
	C557.603271,1.000000 816.206543,1.000000 1075.000000,1.000000 
	C1075.000000,302.029358 1075.000000,603.058716 1074.639893,904.569702 
	C1072.072510,906.195740 1069.883911,907.378357 1067.654785,908.478699 
	C1048.918213,917.727600 1030.515991,927.762390 1011.326599,935.951599 
	C995.365967,942.762817 978.477478,947.399841 962.000000,953.000000 
	C641.745361,953.000000 321.490753,953.000000 1.000000,953.000000 
	C1.000000,714.970703 1.000000,476.941284 1.353878,238.449692 
	C2.842571,237.314148 4.056015,236.744492 5.100670,235.952271 
	C29.429480,217.501953 56.053730,202.866791 83.346230,189.453735 
	C109.438271,176.630615 135.975845,164.712708 162.044846,151.844360 
	C189.771652,138.157669 216.760696,123.193367 240.525650,103.028336 
	C256.399323,89.559212 270.153412,74.268600 279.845520,55.863956 
	C288.927124,38.618530 294.954407,20.106035 299.000000,1.000000 
M480.283112,296.082611 
	C475.345032,297.204773 474.493469,300.721924 474.756256,305.646606 
	C474.171600,306.766449 473.586975,307.886261 472.421082,309.069611 
	C472.293304,309.718201 472.165558,310.366760 471.963318,311.661804 
	C471.321503,312.775757 470.679688,313.889709 469.307220,315.129791 
	C466.174255,320.356354 463.438812,325.660645 466.011719,332.911102 
	C465.952942,335.943481 465.894196,338.975830 465.190186,342.155182 
	C465.407135,343.434296 465.624054,344.713379 465.914368,346.898865 
	C465.942810,349.933685 465.971252,352.968475 465.438782,356.560944 
	C464.732635,369.602783 470.035583,380.839966 476.966522,391.164673 
	C480.984772,397.150452 486.410858,402.361603 491.865540,407.170288 
	C498.963196,413.427399 505.687561,420.379364 516.189941,421.439392 
	C520.777954,421.902435 525.098877,424.720825 529.627625,426.205414 
	C531.456787,426.805023 533.512878,426.787323 535.474121,426.892700 
	C538.707458,427.066437 541.951416,427.049103 545.183594,427.237854 
	C546.818726,427.333313 548.474426,428.058350 550.058594,427.895142 
	C567.501831,426.098541 584.192383,421.642242 599.144775,412.251434 
	C603.583008,409.464050 608.120544,405.981750 609.000000,400.000000 
	C609.000000,400.000000 608.955505,399.960022 609.710144,399.976288 
	C611.050049,399.405151 612.862610,399.201965 613.644958,398.196869 
	C616.479187,394.555634 619.646545,390.937103 621.436951,386.772125 
	C624.603149,379.406860 626.890686,371.660339 629.476685,364.049866 
	C634.986511,347.835205 632.850098,331.819641 627.784851,316.015747 
	C626.332031,311.483002 623.954041,307.213928 621.678467,302.997650 
	C620.986938,301.716309 619.217224,301.016815 617.995117,299.997894 
	C617.995117,299.997894 617.947754,300.054230 617.905151,299.320312 
	C616.390259,296.833557 615.261841,293.974701 613.290527,291.927521 
	C606.464783,284.839172 600.610413,276.497406 590.606934,273.213074 
	C589.903564,272.982178 589.370422,272.170746 588.808289,271.581360 
	C585.609680,268.227539 575.749634,265.686737 570.326904,266.993103 
	C569.883362,266.951935 569.439758,266.910767 568.837280,266.176575 
	C563.854553,263.225891 558.666443,261.799011 552.097412,264.047516 
	C549.730530,264.039551 547.363586,264.031586 544.843201,263.277771 
	C544.026611,262.888306 543.193909,262.130524 542.395813,262.165314 
	C532.484619,262.597321 522.843201,264.221313 513.628906,268.197357 
	C503.103485,272.739136 493.645172,278.718109 486.292725,287.608063 
	C484.201416,290.136688 482.751801,293.196014 481.000000,295.999146 
	C481.000000,295.999146 481.013885,296.007751 480.283112,296.082611 
M644.980896,455.804504 
	C643.088379,463.773773 644.213928,464.671570 652.563171,464.449890 
	C661.923279,464.201324 671.314636,464.531372 680.672119,465.007233 
	C686.338318,465.295380 691.558838,461.805542 691.970703,456.105713 
	C692.553894,448.035858 693.077271,439.921082 692.846985,431.847748 
	C692.701843,426.759369 694.733765,420.734497 688.945923,416.324829 
	C688.949829,415.885956 688.953735,415.447083 689.766479,415.003143 
	C691.804260,415.763153 693.831360,416.553253 695.882141,417.276337 
	C699.292664,418.478882 702.718323,419.638397 706.853394,420.870728 
	C707.569519,420.920288 708.285706,420.969849 709.125610,421.720856 
	C711.088745,422.806030 712.936707,424.268036 715.035461,424.909393 
	C722.971741,427.334473 731.035706,427.495758 739.378723,427.250153 
	C751.882568,426.882050 763.076050,423.562531 773.094116,416.418396 
	C778.043030,412.889221 781.903503,407.666107 787.105408,404.696686 
	C796.020386,399.607697 796.914734,389.794525 801.877136,382.440613 
	C803.513062,380.016205 804.874023,377.227844 805.617126,374.409821 
	C809.041626,361.422363 811.137756,348.268555 808.971741,334.798859 
	C808.474670,331.707550 807.504211,328.691864 807.017212,325.599548 
	C805.002136,312.806305 800.083984,301.462738 792.014038,291.164368 
	C788.676819,286.905670 787.160828,281.968414 780.924194,279.930573 
	C776.889160,278.612122 774.008667,274.117065 769.686768,271.708527 
	C758.859375,265.674561 747.418945,262.619171 735.332764,262.113159 
	C721.191345,261.521088 707.814453,264.744415 696.150879,272.608398 
	C693.621887,271.326355 691.329773,270.164398 688.558533,268.460785 
	C687.369629,268.277496 686.180664,268.094177 684.784302,267.145111 
	C683.100586,266.763397 681.425964,266.101379 679.731567,266.045990 
	C669.614380,265.715393 659.492859,265.463165 649.371643,265.408234 
	C648.592773,265.403992 647.804626,267.121185 646.986694,268.524536 
	C646.986694,268.524536 646.938538,269.009674 646.198608,269.114960 
	C645.491516,270.568604 644.312927,271.978241 644.172302,273.484802 
	C643.847473,276.964905 644.025757,280.491974 643.404175,284.491272 
	C642.936096,286.717560 642.204529,288.924896 642.042664,291.173218 
	C640.985718,305.857971 644.338013,320.794739 639.501343,335.278229 
	C639.268188,335.976501 639.675415,336.875641 639.730225,337.684906 
	C640.262695,345.553986 640.783630,353.423859 641.236450,360.221619 
	C638.152527,361.394073 634.750305,361.821533 634.512512,362.928741 
	C633.514038,367.576782 633.300232,372.425171 633.208374,377.208038 
	C633.191101,378.107819 634.999695,379.096802 636.043945,379.948853 
	C637.291138,380.966492 638.622437,381.881195 639.917297,382.840424 
	C638.648865,384.165039 637.364258,385.474640 636.116943,386.818878 
	C635.057434,387.960785 633.148621,389.134644 633.138123,390.308044 
	C632.955627,410.623749 632.983154,430.941650 633.079529,451.258545 
	C633.084900,452.394379 633.868103,454.244812 634.673706,454.487793 
	C635.840332,454.839661 638.017883,454.489502 638.617371,453.634583 
	C642.062195,448.722290 643.398071,452.188934 644.980896,455.804504 
M348.504608,346.558105 
	C348.350250,345.367310 348.195862,344.176514 348.051575,342.080322 
	C348.050507,339.059326 348.049438,336.038300 348.568665,332.417725 
	C348.689606,331.941101 348.952087,331.451843 348.910767,330.989746 
	C347.872345,319.384705 358.838928,304.576996 371.542633,303.819153 
	C378.644348,303.395477 385.839996,304.546204 393.593964,305.309692 
	C406.063690,312.191681 410.324982,323.059113 410.119476,336.875122 
	C409.728149,363.189117 410.091675,389.513611 409.916229,415.832245 
	C409.888184,420.035065 411.187469,421.233429 415.301117,421.133362 
	C425.955994,420.874207 436.624634,420.896912 447.280823,421.128418 
	C451.092773,421.211212 452.139984,419.899963 452.053131,416.241730 
	C451.835754,407.084961 452.070953,397.918579 451.969208,388.757782 
	C451.693939,363.973572 451.803345,339.171661 450.811707,314.414734 
	C450.336823,302.559967 445.233368,291.842896 436.716736,283.282532 
	C427.248840,273.766022 416.314697,267.169373 402.445099,265.720459 
	C389.311707,264.348419 376.548157,264.295532 364.587891,270.691650 
	C359.411591,273.459808 354.478729,276.683105 348.033173,280.538300 
	C348.033173,256.383911 348.033173,233.196396 348.570221,209.379059 
	C348.695831,204.900940 348.704987,200.415558 348.983215,195.946945 
	C349.213043,192.255859 347.714203,190.934937 344.038025,190.992310 
	C333.714935,191.153427 323.380707,191.272949 313.065125,190.951584 
	C308.166473,190.798965 306.876373,192.518005 306.884674,197.264069 
	C307.012604,270.209351 306.970612,343.154877 306.973297,416.100372 
	C306.973541,422.449280 306.986725,422.427216 313.529358,421.346527 
	C314.659424,421.159851 315.836487,421.192932 316.989563,421.220367 
	C326.452545,421.445648 335.914795,421.790283 345.377899,421.811127 
	C346.545929,421.813690 348.627808,420.204132 348.712433,419.207947 
	C348.942108,416.504242 348.325897,413.728668 348.059204,410.327240 
	C348.055725,409.890930 348.052277,409.454651 348.580902,408.382477 
	C348.682587,393.496216 348.794037,378.609955 348.849365,363.723541 
	C348.851532,363.145660 348.315857,362.565765 348.043732,361.056427 
	C348.039642,356.374847 348.035583,351.693268 348.504608,346.558105 
M114.245026,701.201599 
	C114.460968,702.515930 114.682724,703.829285 114.891983,705.144653 
	C122.408646,752.392151 142.389542,793.306152 177.484756,826.175842 
	C208.622604,855.339111 245.595428,871.118835 288.492004,871.846436 
	C322.327820,872.420349 353.607361,862.815002 382.888672,846.436707 
	C387.768036,843.707581 390.410461,844.492920 394.341797,847.950562 
	C415.704742,866.739380 440.275177,873.386597 468.137695,866.155396 
	C487.335144,861.173035 503.384796,850.521790 517.931519,837.547607 
	C526.320679,830.065430 533.986206,821.771912 542.442261,813.382446 
	C523.744507,797.017578 505.909210,781.407532 489.204102,766.786682 
	C483.652344,771.694153 478.921936,776.445496 473.613922,780.426819 
	C466.608643,785.681335 459.287079,790.557861 451.795990,795.092102 
	C449.783813,796.309998 446.662872,795.696045 444.050964,795.923035 
	C443.876312,795.429016 443.701660,794.935059 443.527008,794.441040 
	C444.486481,793.161438 445.455170,791.888550 446.404022,790.601074 
	C452.134430,782.825256 458.341217,775.351929 463.511871,767.219910 
	C505.551453,701.103577 520.357117,629.390198 506.838440,552.087097 
	C503.449554,532.708435 497.554199,514.142334 484.625061,498.712769 
	C472.497437,484.239716 457.067017,476.979095 437.932098,478.921997 
	C422.947266,480.443573 410.854584,487.733215 400.850830,498.606476 
	C397.892670,501.821808 395.533722,502.435303 391.507751,500.324707 
	C384.296936,496.544495 376.836121,493.146942 369.238342,490.215240 
	C332.816071,476.161194 295.434448,470.851715 257.113007,480.658905 
	C201.061005,495.003662 162.509064,531.506531 135.276367,580.768127 
	C114.727798,617.938904 109.050194,658.315186 114.245026,701.201599 
M960.036865,594.606079 
	C961.059021,591.087524 962.274719,587.612244 963.074158,584.043823 
	C974.786499,531.765564 970.660889,481.512573 944.466248,433.838318 
	C938.477539,422.938904 932.339966,411.671753 929.089355,399.802032 
	C919.449402,364.601685 921.832031,330.217499 940.051758,297.729492 
	C951.256592,277.750031 961.253235,257.175812 965.077087,234.356842 
	C967.402893,220.476929 968.469543,206.385986 970.163330,191.862976 
	C945.115234,191.862976 921.611145,191.862976 897.937683,191.862976 
	C897.765320,193.599380 897.509766,194.911057 897.523865,196.219833 
	C897.769287,218.871002 890.289062,239.160461 879.898254,258.984436 
	C872.201782,273.668213 864.510681,288.847046 860.199219,304.723755 
	C845.203491,359.944733 850.495178,413.215668 878.961182,463.663727 
	C884.571350,473.606171 889.930115,484.152985 892.782288,495.104095 
	C902.073364,530.777954 899.358948,565.430542 880.475891,597.963989 
	C863.633118,626.982239 853.553162,657.993652 852.497009,691.782776 
	C851.516418,723.156860 855.079712,753.675659 868.409180,782.470154 
	C872.674622,791.684509 877.203430,800.801636 882.103577,809.692200 
	C892.040161,827.720337 897.519836,846.840393 897.452515,867.482727 
	C897.443604,870.205139 897.238342,872.715759 901.436462,872.687378 
	C922.766113,872.543213 944.097351,872.606445 965.427856,872.671692 
	C968.258057,872.680298 969.338501,871.543335 969.096558,868.776611 
	C968.125671,857.670532 967.737183,846.484253 966.165283,835.465820 
	C962.602295,810.490479 951.821838,788.171692 940.069275,766.158264 
	C918.601074,725.946716 917.841309,685.052368 937.258118,643.778748 
	C944.836121,627.670532 952.289490,611.503601 960.036865,594.606079 
M571.786255,603.500000 
	C571.786255,692.875427 571.786255,782.250916 571.786255,871.542847 
	C600.926636,871.542847 629.153259,871.542847 657.781921,871.542847 
	C657.781921,868.848938 657.781921,866.539978 657.781982,864.231018 
	C657.783508,796.579285 657.699951,728.927246 657.879639,661.276001 
	C657.906128,651.318115 658.545898,641.269348 660.005798,631.426331 
	C663.458008,608.152100 673.430359,588.295715 694.313171,576.002808 
	C726.122131,557.278015 758.236572,559.284973 789.640259,577.238281 
	C798.065247,582.054749 805.494568,588.612732 813.674988,594.585999 
	C815.034668,592.455566 816.602722,590.135742 818.033752,587.734375 
	C828.436157,570.278870 838.827209,552.816650 849.187988,535.336426 
	C854.786133,525.891479 854.742920,525.888000 846.570190,518.422119 
	C815.426270,489.971954 779.138123,477.128693 736.917297,482.196411 
	C706.483582,485.849335 680.802429,498.223450 661.819092,522.960938 
	C660.862610,524.207458 659.811768,525.381409 657.799438,527.795044 
	C657.799438,514.105774 657.799438,501.911591 657.799438,489.608429 
	C628.802368,489.608429 600.456909,489.608429 571.786072,489.608429 
	C571.786072,527.544006 571.786072,565.021973 571.786255,603.500000 
M183.694534,343.830597 
	C194.360580,352.635986 207.267227,356.320374 220.195816,360.132568 
	C227.625900,362.323425 234.953293,365.030151 242.040955,368.153534 
	C246.489807,370.114044 248.695602,374.420563 247.834793,379.310303 
	C246.981003,384.160187 243.549881,387.138306 238.681824,388.018677 
	C225.228622,390.451508 212.131042,389.522888 200.077255,382.558777 
	C194.986984,379.617859 190.407913,375.792084 185.480560,372.286041 
	C178.195557,379.497009 170.790909,386.683807 163.630386,394.106049 
	C162.795044,394.971924 162.594955,397.769165 163.321930,398.592743 
	C166.280930,401.944946 169.371140,405.381409 173.031036,407.882324 
	C196.500992,423.919647 222.444870,428.756989 249.981140,422.589508 
	C262.942749,419.686401 274.324341,413.191223 281.689636,401.059875 
	C288.293488,390.182739 289.326996,378.340271 287.644104,366.432831 
	C286.166473,355.977692 280.380035,347.363770 271.727509,340.860565 
	C261.765900,333.373444 249.885590,330.641754 238.388916,326.880157 
	C230.980850,324.456329 223.618637,321.868866 216.339493,319.083893 
	C212.400589,317.576813 210.784973,313.680359 211.481110,310.148010 
	C212.048050,307.271271 214.350922,303.661346 216.878952,302.445953 
	C224.777832,298.648560 233.394714,299.074982 241.752533,300.991028 
	C250.025269,302.887604 257.027557,307.262787 263.012756,313.350891 
	C263.821869,314.173889 266.487610,314.578430 267.101959,313.971161 
	C274.178589,306.975983 281.126312,299.839722 287.805786,292.466827 
	C288.650940,291.533966 288.487183,288.409943 287.573700,287.359161 
	C278.735443,277.192566 267.547028,270.584045 254.612717,267.077728 
	C242.466385,263.785065 230.137512,263.107697 217.610794,264.919739 
	C199.849258,267.489014 184.776703,274.357910 175.825165,290.803345 
	C167.727020,305.681030 168.727356,330.418854 183.694534,343.830597 
z"/>
<path fill="#D2BFDD" opacity="1.000000" stroke="none" 
	d="
M298.531342,1.000000 
	C294.954407,20.106035 288.927124,38.618530 279.845520,55.863956 
	C270.153412,74.268600 256.399323,89.559212 240.525650,103.028336 
	C216.760696,123.193367 189.771652,138.157669 162.044846,151.844360 
	C135.975845,164.712708 109.438271,176.630615 83.346230,189.453735 
	C56.053730,202.866791 29.429480,217.501953 5.100670,235.952271 
	C4.056015,236.744492 2.842571,237.314148 1.353878,237.993744 
	C1.000000,159.064621 1.000000,80.129257 1.000000,1.000000 
	C100.020813,1.000000 199.041748,1.000000 298.531342,1.000000 
z"/>
<path fill="#F1B925" opacity="1.000000" stroke="none" 
	d="
M962.468628,953.000000 
	C978.477478,947.399841 995.365967,942.762817 1011.326599,935.951599 
	C1030.515991,927.762390 1048.918213,917.727600 1067.654785,908.478699 
	C1069.883911,907.378357 1072.072510,906.195740 1074.639893,905.025635 
	C1075.000000,920.956421 1075.000000,936.912781 1075.000000,953.000000 
	C1037.645874,953.000000 1000.291565,953.000000 962.468628,953.000000 
z"/>
<path fill="#918B35" opacity="1.000000" stroke="none" 
	d="
M114.200607,700.756470 
	C109.050194,658.315186 114.727798,617.938904 135.276367,580.768127 
	C162.509064,531.506531 201.061005,495.003662 257.113007,480.658905 
	C295.434448,470.851715 332.816071,476.161194 369.238342,490.215240 
	C376.836121,493.146942 384.296936,496.544495 391.507751,500.324707 
	C395.533722,502.435303 397.892670,501.821808 400.850830,498.606476 
	C410.854584,487.733215 422.947266,480.443573 437.932098,478.921997 
	C457.067017,476.979095 472.497437,484.239716 484.625061,498.712769 
	C497.554199,514.142334 503.449554,532.708435 506.838440,552.087097 
	C520.357117,629.390198 505.551453,701.103577 463.511871,767.219910 
	C458.341217,775.351929 452.134430,782.825256 446.404022,790.601074 
	C445.455170,791.888550 444.486481,793.161438 443.527008,794.441040 
	C443.701660,794.935059 443.876312,795.429016 444.050964,795.923035 
	C446.662872,795.696045 449.783813,796.309998 451.795990,795.092102 
	C459.287079,790.557861 466.608643,785.681335 473.613922,780.426819 
	C478.921936,776.445496 483.652344,771.694153 489.204102,766.786682 
	C505.909210,781.407532 523.744507,797.017578 542.442261,813.382446 
	C533.986206,821.771912 526.320679,830.065430 517.931519,837.547607 
	C503.384796,850.521790 487.335144,861.173035 468.137695,866.155396 
	C440.275177,873.386597 415.704742,866.739380 394.341797,847.950562 
	C390.410461,844.492920 387.768036,843.707581 382.888672,846.436707 
	C353.607361,862.815002 322.327820,872.420349 288.492004,871.846436 
	C245.595428,871.118835 208.622604,855.339111 177.484756,826.175842 
	C142.389542,793.306152 122.408646,752.392151 114.891983,705.144653 
	C114.682724,703.829285 114.460968,702.515930 114.200607,700.756470 
M354.755371,562.767883 
	C350.936401,561.121582 347.172424,559.330994 343.289764,557.851868 
	C311.541992,545.757446 279.955505,543.350647 249.383591,561.081055 
	C225.837296,574.736938 207.915131,594.249939 196.445847,618.793152 
	C176.818314,660.794312 180.247101,702.368408 202.201508,742.547791 
	C213.897903,763.953674 230.411118,780.990540 253.015030,791.049927 
	C287.732422,806.500183 320.370087,798.906067 351.771606,780.962219 
	C352.777344,780.387512 353.502075,777.875610 353.153900,776.593811 
	C347.901154,757.255249 344.383636,737.636780 342.676727,717.661987 
	C338.412933,667.765808 343.018341,618.861023 358.969147,571.248291 
	C360.437592,566.864990 360.094574,564.321594 354.755371,562.767883 
M413.120697,704.091187 
	C413.272247,705.597412 413.423828,707.103699 413.575409,708.609924 
	C437.221649,665.274780 444.726929,619.453979 437.031464,570.943726 
	C433.220673,578.274963 429.647980,585.697327 426.950073,593.425232 
	C414.528992,629.003662 411.212250,665.779663 413.120697,704.091187 
z"/>
<path fill="#918C35" opacity="1.000000" stroke="none" 
	d="
M959.918213,594.984741 
	C952.289490,611.503601 944.836121,627.670532 937.258118,643.778748 
	C917.841309,685.052368 918.601074,725.946716 940.069275,766.158264 
	C951.821838,788.171692 962.602295,810.490479 966.165283,835.465820 
	C967.737183,846.484253 968.125671,857.670532 969.096558,868.776611 
	C969.338501,871.543335 968.258057,872.680298 965.427856,872.671692 
	C944.097351,872.606445 922.766113,872.543213 901.436462,872.687378 
	C897.238342,872.715759 897.443604,870.205139 897.452515,867.482727 
	C897.519836,846.840393 892.040161,827.720337 882.103577,809.692200 
	C877.203430,800.801636 872.674622,791.684509 868.409180,782.470154 
	C855.079712,753.675659 851.516418,723.156860 852.497009,691.782776 
	C853.553162,657.993652 863.633118,626.982239 880.475891,597.963989 
	C899.358948,565.430542 902.073364,530.777954 892.782288,495.104095 
	C889.930115,484.152985 884.571350,473.606171 878.961182,463.663727 
	C850.495178,413.215668 845.203491,359.944733 860.199219,304.723755 
	C864.510681,288.847046 872.201782,273.668213 879.898254,258.984436 
	C890.289062,239.160461 897.769287,218.871002 897.523865,196.219833 
	C897.509766,194.911057 897.765320,193.599380 897.937683,191.862976 
	C921.611145,191.862976 945.115234,191.862976 970.163330,191.862976 
	C968.469543,206.385986 967.402893,220.476929 965.077087,234.356842 
	C961.253235,257.175812 951.256592,277.750031 940.051758,297.729492 
	C921.832031,330.217499 919.449402,364.601685 929.089355,399.802032 
	C932.339966,411.671753 938.477539,422.938904 944.466248,433.838318 
	C970.660889,481.512573 974.786499,531.765564 963.074158,584.043823 
	C962.274719,587.612244 961.059021,591.087524 959.918213,594.984741 
z"/>
<path fill="#918B35" opacity="1.000000" stroke="none" 
	d="
M571.786133,603.000000 
	C571.786072,565.021973 571.786072,527.544006 571.786072,489.608429 
	C600.456909,489.608429 628.802368,489.608429 657.799438,489.608429 
	C657.799438,501.911591 657.799438,514.105774 657.799438,527.795044 
	C659.811768,525.381409 660.862610,524.207458 661.819092,522.960938 
	C680.802429,498.223450 706.483582,485.849335 736.917297,482.196411 
	C779.138123,477.128693 815.426270,489.971954 846.570190,518.422119 
	C854.742920,525.888000 854.786133,525.891479 849.187988,535.336426 
	C838.827209,552.816650 828.436157,570.278870 818.033752,587.734375 
	C816.602722,590.135742 815.034668,592.455566 813.674988,594.585999 
	C805.494568,588.612732 798.065247,582.054749 789.640259,577.238281 
	C758.236572,559.284973 726.122131,557.278015 694.313171,576.002808 
	C673.430359,588.295715 663.458008,608.152100 660.005798,631.426331 
	C658.545898,641.269348 657.906128,651.318115 657.879639,661.276001 
	C657.699951,728.927246 657.783508,796.579285 657.781982,864.231018 
	C657.781921,866.539978 657.781921,868.848938 657.781921,871.542847 
	C629.153259,871.542847 600.926636,871.542847 571.786255,871.542847 
	C571.786255,782.250916 571.786255,692.875427 571.786133,603.000000 
z"/>
<path fill="#C5D4EC" opacity="1.000000" stroke="none" 
	d="
M646.938538,269.009674 
	C646.938538,269.009674 646.986694,268.524536 647.469971,268.265930 
	C660.299438,267.975189 672.645569,267.943024 684.991760,267.910828 
	C686.180664,268.094177 687.369629,268.277496 688.778564,269.186737 
	C688.998535,273.133026 688.998535,276.353363 688.998535,280.399445 
	C693.280273,277.504822 696.418640,275.099335 699.814148,273.139282 
	C711.400146,266.451355 723.963501,264.371216 737.248169,264.900726 
	C750.834961,265.442291 763.124939,269.791046 773.886536,277.585388 
	C796.213318,293.755981 806.201477,316.560394 806.901672,343.634216 
	C807.313721,359.565826 803.324646,374.582703 795.277405,388.369843 
	C785.203064,405.629944 770.817444,417.255280 751.140320,422.247650 
	C736.881592,425.865295 722.936890,425.230835 709.001831,421.019409 
	C708.285706,420.969849 707.569519,420.920288 706.390259,420.523499 
	C700.246460,416.535400 694.565674,412.894592 687.670959,408.475739 
	C688.262634,411.479462 688.610168,413.243835 688.957642,415.008209 
	C688.953735,415.447083 688.949829,415.885956 688.684570,416.970062 
	C688.296570,430.906342 688.059509,444.197845 688.117676,457.488068 
	C688.133057,461.007355 687.002258,462.094238 683.533508,462.026855 
	C673.721375,461.836182 663.903198,461.971130 654.087402,461.954254 
	C647.210815,461.942444 647.118958,461.835266 646.990723,454.555878 
	C646.995300,451.740326 646.985901,449.368927 646.993164,446.529388 
	C646.995972,417.375305 646.982056,388.689362 646.983093,359.586304 
	C646.987610,357.778412 646.977234,356.387573 646.985596,354.528809 
	C646.982422,325.710449 646.960510,297.360077 646.938538,269.009674 
M760.209595,363.581299 
	C764.354797,355.755005 764.789978,347.216980 763.822632,338.804199 
	C762.559937,327.822540 758.172058,318.217438 748.949646,311.208923 
	C742.910095,306.619171 736.205261,304.268524 728.825562,303.448029 
	C715.236328,301.937164 703.653503,306.505890 695.268494,316.925446 
	C686.113586,328.301727 684.388367,341.931000 687.552856,355.998688 
	C691.284912,372.589386 703.534729,384.438599 718.980347,385.839203 
	C736.905212,387.464661 751.593811,381.988800 760.209595,363.581299 
z"/>
<path fill="#C5D4EC" opacity="1.000000" stroke="none" 
	d="
M348.048401,333.017303 
	C348.049438,336.038300 348.050507,339.059326 347.783173,342.746521 
	C347.687012,344.612366 347.859283,345.812012 348.031525,347.011688 
	C348.035583,351.693268 348.039642,356.374847 347.741333,361.819946 
	C347.318604,377.504883 347.187714,392.426239 347.119507,407.347900 
	C347.116974,407.903290 347.725189,408.461487 348.048828,409.018341 
	C348.052277,409.454651 348.055725,409.890930 347.767944,410.917847 
	C346.107178,419.854492 344.847565,420.660919 335.758636,419.156891 
	C334.618286,418.968201 333.430511,418.967163 332.270233,419.014374 
	C325.724945,419.280487 319.179565,419.776428 312.638885,419.712708 
	C311.418304,419.700806 309.292206,417.583984 309.175842,416.294891 
	C308.750519,411.583008 308.906525,406.808319 309.010071,402.060974 
	C309.294495,389.017151 309.911102,375.976013 309.952545,362.932373 
	C310.079346,323.012238 309.997864,283.091492 309.997681,243.170975 
	C309.997620,228.423340 310.129517,213.673843 309.918152,198.929245 
	C309.855652,194.568130 311.426086,192.898956 315.681488,192.963806 
	C324.178009,193.093338 332.680298,193.119736 341.175293,192.947342 
	C344.947205,192.870789 345.946075,194.470627 346.112946,198.020508 
	C346.301788,202.037857 347.355499,206.014542 348.033142,210.008896 
	C348.033173,233.196396 348.033173,256.383911 348.033173,280.538300 
	C354.478729,276.683105 359.411591,273.459808 364.587891,270.691650 
	C376.548157,264.295532 389.311707,264.348419 402.445099,265.720459 
	C416.314697,267.169373 427.248840,273.766022 436.716736,283.282532 
	C445.233368,291.842896 450.336823,302.559967 450.811707,314.414734 
	C451.803345,339.171661 451.693939,363.973572 451.969208,388.757782 
	C452.070953,397.918579 451.835754,407.084961 452.053131,416.241730 
	C452.139984,419.899963 451.092773,421.211212 447.280823,421.128418 
	C436.624634,420.896912 425.955994,420.874207 415.301117,421.133362 
	C411.187469,421.233429 409.888184,420.035065 409.916229,415.832245 
	C410.091675,389.513611 409.728149,363.189117 410.119476,336.875122 
	C410.324982,323.059113 406.063690,312.191681 393.247406,304.774658 
	C391.742096,303.184631 390.610352,301.247192 389.420471,301.210815 
	C377.241180,300.838531 364.868652,299.188568 355.154022,309.803894 
	C349.422028,316.067322 345.535645,326.442566 348.048401,333.017303 
z"/>
<path fill="#C5D4EC" opacity="1.000000" stroke="none" 
	d="
M473.002319,309.006104 
	C473.586975,307.886261 474.171600,306.766449 475.185791,305.181580 
	C477.414856,301.813629 479.214355,298.910675 481.013855,296.007751 
	C481.013885,296.007751 481.000000,295.999146 481.301941,295.857422 
	C483.501801,293.855652 485.515839,292.099030 487.278656,290.118774 
	C498.476807,277.539764 512.508911,269.948212 528.868530,266.558319 
	C534.191162,265.455444 539.617676,264.854279 544.996704,264.023621 
	C547.363586,264.031586 549.730530,264.039551 552.840576,264.307190 
	C558.721191,265.334473 563.858704,266.102051 568.996216,266.869598 
	C569.439758,266.910767 569.883362,266.951935 570.910767,267.260834 
	C584.422058,271.535645 596.185303,277.585083 605.800354,287.310822 
	C609.925476,291.483490 613.903076,295.802002 617.947754,300.054230 
	C617.947754,300.054230 617.995117,299.997894 617.977539,300.394470 
	C620.905396,307.760254 624.666016,314.505890 626.649963,321.738831 
	C633.815552,347.862885 629.892029,372.115173 612.902832,393.770996 
	C611.399719,395.687042 610.262573,397.890198 608.955444,399.960022 
	C608.955505,399.960022 609.000000,400.000000 608.640503,400.026306 
	C601.648987,404.973114 595.467590,410.713470 588.297485,414.655457 
	C569.233459,425.136688 548.874817,427.151306 527.667908,422.194824 
	C501.067505,415.977814 482.515991,400.217834 471.756836,375.354645 
	C469.103119,369.222137 467.880310,362.470367 465.999725,356.003296 
	C465.971252,352.968475 465.942810,349.933685 465.921753,346.048645 
	C465.897919,344.135040 465.866669,343.071625 465.835419,342.008209 
	C465.894196,338.975830 465.952942,335.943481 466.277832,332.180389 
	C467.708618,325.967682 468.873260,320.485657 470.037872,315.003662 
	C470.679688,313.889709 471.321503,312.775757 472.235016,311.161957 
	C472.671936,310.110107 472.837128,309.558105 473.002319,309.006104 
M582.185669,366.515472 
	C586.268677,358.254517 587.662109,349.483826 587.000122,340.363586 
	C586.183105,329.106781 581.928406,319.542511 572.964355,312.334717 
	C564.794678,305.765594 555.562073,303.235291 545.076233,303.865326 
	C532.596191,304.615143 522.640808,309.596924 515.540100,319.841583 
	C507.873871,330.902191 506.431152,343.201355 509.578552,356.031830 
	C512.183533,366.651031 518.100708,375.257660 527.628479,380.744751 
	C545.323059,390.935120 570.622009,386.117706 582.185669,366.515472 
z"/>
<path fill="#C5D4EB" opacity="1.000000" stroke="none" 
	d="
M183.394867,343.634338 
	C168.727356,330.418854 167.727020,305.681030 175.825165,290.803345 
	C184.776703,274.357910 199.849258,267.489014 217.610794,264.919739 
	C230.137512,263.107697 242.466385,263.785065 254.612717,267.077728 
	C267.547028,270.584045 278.735443,277.192566 287.573700,287.359161 
	C288.487183,288.409943 288.650940,291.533966 287.805786,292.466827 
	C281.126312,299.839722 274.178589,306.975983 267.101959,313.971161 
	C266.487610,314.578430 263.821869,314.173889 263.012756,313.350891 
	C257.027557,307.262787 250.025269,302.887604 241.752533,300.991028 
	C233.394714,299.074982 224.777832,298.648560 216.878952,302.445953 
	C214.350922,303.661346 212.048050,307.271271 211.481110,310.148010 
	C210.784973,313.680359 212.400589,317.576813 216.339493,319.083893 
	C223.618637,321.868866 230.980850,324.456329 238.388916,326.880157 
	C249.885590,330.641754 261.765900,333.373444 271.727509,340.860565 
	C280.380035,347.363770 286.166473,355.977692 287.644104,366.432831 
	C289.326996,378.340271 288.293488,390.182739 281.689636,401.059875 
	C274.324341,413.191223 262.942749,419.686401 249.981140,422.589508 
	C222.444870,428.756989 196.500992,423.919647 173.031036,407.882324 
	C169.371140,405.381409 166.280930,401.944946 163.321930,398.592743 
	C162.594955,397.769165 162.795044,394.971924 163.630386,394.106049 
	C170.790909,386.683807 178.195557,379.497009 185.480560,372.286041 
	C190.407913,375.792084 194.986984,379.617859 200.077255,382.558777 
	C212.131042,389.522888 225.228622,390.451508 238.681824,388.018677 
	C243.549881,387.138306 246.981003,384.160187 247.834793,379.310303 
	C248.695602,374.420563 246.489807,370.114044 242.040955,368.153534 
	C234.953293,365.030151 227.625900,362.323425 220.195816,360.132568 
	C207.267227,356.320374 194.360580,352.635986 183.394867,343.634338 
z"/>
<path fill="#F8F7F1" opacity="1.000000" stroke="none" 
	d="
M646.976501,446.997498 
	C646.985901,449.368927 646.995300,451.740326 646.661560,454.555725 
	C645.878906,454.999786 645.439453,454.999878 645.000000,455.000000 
	C643.398071,452.188934 642.062195,448.722290 638.617371,453.634583 
	C638.017883,454.489502 635.840332,454.839661 634.673706,454.487793 
	C633.868103,454.244812 633.084900,452.394379 633.079529,451.258545 
	C632.983154,430.941650 632.955627,410.623749 633.138123,390.308044 
	C633.148621,389.134644 635.057434,387.960785 636.116943,386.818878 
	C637.364258,385.474640 638.648865,384.165039 639.917297,382.840454 
	C638.622437,381.881195 637.291138,380.966492 636.043945,379.948853 
	C634.999695,379.096802 633.191101,378.107819 633.208374,377.208038 
	C633.300232,372.425171 633.514038,367.576782 634.512512,362.928741 
	C634.750305,361.821533 638.152527,361.394073 641.236450,360.221619 
	C640.783630,353.423859 640.262695,345.553986 639.730225,337.684906 
	C639.675415,336.875641 639.268188,335.976501 639.501343,335.278229 
	C644.338013,320.794739 640.985718,305.857971 642.042664,291.173218 
	C642.204529,288.924896 642.936096,286.717560 643.991089,284.546509 
	C644.718628,286.400391 644.979065,288.198792 644.981689,289.997620 
	C645.010742,310.034454 644.954346,330.071655 645.085144,350.107697 
	C645.095825,351.741425 646.311218,353.367249 646.966797,354.996735 
	C646.977234,356.387573 646.987610,357.778412 646.594116,359.685974 
	C645.794495,361.210602 645.055603,362.217682 645.053223,363.226501 
	C644.989990,390.012939 644.978455,416.799622 645.086060,443.585785 
	C645.090637,444.725525 646.318481,445.860382 646.976501,446.997498 
M641.869080,370.167328 
	C640.849060,367.908569 639.306641,367.610779 638.674255,370.066589 
	C638.149902,372.102875 638.817444,374.446167 638.956970,376.653442 
	C639.694763,376.660614 640.432556,376.667816 641.170410,376.675018 
	C641.437012,374.764008 641.703613,372.852997 641.869080,370.167328 
z"/>
<path fill="#F6F5F4" opacity="1.000000" stroke="none" 
	d="
M709.063721,421.370117 
	C722.936890,425.230835 736.881592,425.865295 751.140320,422.247650 
	C770.817444,417.255280 785.203064,405.629944 795.277405,388.369843 
	C803.324646,374.582703 807.313721,359.565826 806.901672,343.634216 
	C806.201477,316.560394 796.213318,293.755981 773.886536,277.585388 
	C763.124939,269.791046 750.834961,265.442291 737.248169,264.900726 
	C723.963501,264.371216 711.400146,266.451355 699.814148,273.139282 
	C696.418640,275.099335 693.280273,277.504822 688.998535,280.399445 
	C688.998535,276.353363 688.998535,273.133026 689.018066,269.457581 
	C691.329773,270.164398 693.621887,271.326355 696.150879,272.608398 
	C707.814453,264.744415 721.191345,261.521088 735.332764,262.113159 
	C747.418945,262.619171 758.859375,265.674561 769.686768,271.708527 
	C774.008667,274.117065 776.889160,278.612122 780.924194,279.930573 
	C787.160828,281.968414 788.676819,286.905670 792.014038,291.164368 
	C800.083984,301.462738 805.002136,312.806305 807.017212,325.599548 
	C807.504211,328.691864 808.474670,331.707550 808.971741,334.798859 
	C811.137756,348.268555 809.041626,361.422363 805.617126,374.409821 
	C804.874023,377.227844 803.513062,380.016205 801.877136,382.440613 
	C796.914734,389.794525 796.020386,399.607697 787.105408,404.696686 
	C781.903503,407.666107 778.043030,412.889221 773.094116,416.418396 
	C763.076050,423.562531 751.882568,426.882050 739.378723,427.250153 
	C731.035706,427.495758 722.971741,427.334473 715.035461,424.909393 
	C712.936707,424.268036 711.088745,422.806030 709.063721,421.370117 
z"/>
<path fill="#CAD2E1" opacity="1.000000" stroke="none" 
	d="
M348.301697,209.693970 
	C347.355499,206.014542 346.301788,202.037857 346.112946,198.020508 
	C345.946075,194.470627 344.947205,192.870789 341.175293,192.947342 
	C332.680298,193.119736 324.178009,193.093338 315.681488,192.963806 
	C311.426086,192.898956 309.855652,194.568130 309.918152,198.929245 
	C310.129517,213.673843 309.997620,228.423340 309.997681,243.170975 
	C309.997864,283.091492 310.079346,323.012238 309.952545,362.932373 
	C309.911102,375.976013 309.294495,389.017151 309.010071,402.060974 
	C308.906525,406.808319 308.750519,411.583008 309.175842,416.294891 
	C309.292206,417.583984 311.418304,419.700806 312.638885,419.712708 
	C319.179565,419.776428 325.724945,419.280487 332.270233,419.014374 
	C333.430511,418.967163 334.618286,418.968201 335.758636,419.156891 
	C344.847565,420.660919 346.107178,419.854492 347.760864,411.245056 
	C348.325897,413.728668 348.942108,416.504242 348.712433,419.207947 
	C348.627808,420.204132 346.545929,421.813690 345.377899,421.811127 
	C335.914795,421.790283 326.452545,421.445648 316.989563,421.220367 
	C315.836487,421.192932 314.659424,421.159851 313.529358,421.346527 
	C306.986725,422.427216 306.973541,422.449280 306.973297,416.100372 
	C306.970612,343.154877 307.012604,270.209351 306.884674,197.264069 
	C306.876373,192.518005 308.166473,190.798965 313.065125,190.951584 
	C323.380707,191.272949 333.714935,191.153427 344.038025,190.992310 
	C347.714203,190.934937 349.213043,192.255859 348.983215,195.946945 
	C348.704987,200.415558 348.695831,204.900940 348.301697,209.693970 
z"/>
<path fill="#F4F5F5" opacity="1.000000" stroke="none" 
	d="
M465.719238,356.282104 
	C467.880310,362.470367 469.103119,369.222137 471.756836,375.354645 
	C482.515991,400.217834 501.067505,415.977814 527.667908,422.194824 
	C548.874817,427.151306 569.233459,425.136688 588.297485,414.655457 
	C595.467590,410.713470 601.648987,404.973114 608.620483,400.004059 
	C608.120544,405.981750 603.583008,409.464050 599.144775,412.251434 
	C584.192383,421.642242 567.501831,426.098541 550.058594,427.895142 
	C548.474426,428.058350 546.818726,427.333313 545.183594,427.237854 
	C541.951416,427.049103 538.707458,427.066437 535.474121,426.892700 
	C533.512878,426.787323 531.456787,426.805023 529.627625,426.205414 
	C525.098877,424.720825 520.777954,421.902435 516.189941,421.439392 
	C505.687561,420.379364 498.963196,413.427399 491.865540,407.170288 
	C486.410858,402.361603 480.984772,397.150452 476.966522,391.164673 
	C470.035583,380.839966 464.732635,369.602783 465.719238,356.282104 
z"/>
<path fill="#F6F5F4" opacity="1.000000" stroke="none" 
	d="
M644.990479,455.402252 
	C645.439453,454.999878 645.878906,454.999786 646.647583,454.999847 
	C647.118958,461.835266 647.210815,461.942444 654.087402,461.954254 
	C663.903198,461.971130 673.721375,461.836182 683.533508,462.026855 
	C687.002258,462.094238 688.133057,461.007355 688.117676,457.488068 
	C688.059509,444.197845 688.296570,430.906342 688.691711,417.299164 
	C694.733765,420.734497 692.701843,426.759369 692.846985,431.847748 
	C693.077271,439.921082 692.553894,448.035858 691.970703,456.105713 
	C691.558838,461.805542 686.338318,465.295380 680.672119,465.007233 
	C671.314636,464.531372 661.923279,464.201324 652.563171,464.449890 
	C644.213928,464.671570 643.088379,463.773773 644.990479,455.402252 
z"/>
<path fill="#F4F5F5" opacity="1.000000" stroke="none" 
	d="
M609.332764,399.968140 
	C610.262573,397.890198 611.399719,395.687042 612.902832,393.770996 
	C629.892029,372.115173 633.815552,347.862885 626.649963,321.738831 
	C624.666016,314.505890 620.905396,307.760254 617.950684,300.420929 
	C619.217224,301.016815 620.986938,301.716309 621.678467,302.997650 
	C623.954041,307.213928 626.332031,311.483002 627.784851,316.015747 
	C632.850098,331.819641 634.986511,347.835205 629.476685,364.049866 
	C626.890686,371.660339 624.603149,379.406860 621.436951,386.772125 
	C619.646545,390.937103 616.479187,394.555634 613.644958,398.196869 
	C612.862610,399.201965 611.050049,399.405151 609.332764,399.968140 
z"/>
<path fill="#F4F5F5" opacity="1.000000" stroke="none" 
	d="
M544.919922,263.650696 
	C539.617676,264.854279 534.191162,265.455444 528.868530,266.558319 
	C512.508911,269.948212 498.476807,277.539764 487.278656,290.118774 
	C485.515839,292.099030 483.501801,293.855652 481.305908,295.863831 
	C482.751801,293.196014 484.201416,290.136688 486.292725,287.608063 
	C493.645172,278.718109 503.103485,272.739136 513.628906,268.197357 
	C522.843201,264.221313 532.484619,262.597321 542.395813,262.165314 
	C543.193909,262.130524 544.026611,262.888306 544.919922,263.650696 
z"/>
<path fill="#F6F5F4" opacity="1.000000" stroke="none" 
	d="
M646.985596,354.528809 
	C646.311218,353.367249 645.095825,351.741425 645.085144,350.107697 
	C644.954346,330.071655 645.010742,310.034454 644.981689,289.997620 
	C644.979065,288.198792 644.718628,286.400391 644.288940,284.300903 
	C644.025757,280.491974 643.847473,276.964905 644.172302,273.484802 
	C644.312927,271.978241 645.491516,270.568604 646.568604,269.062317 
	C646.960510,297.360077 646.982422,325.710449 646.985596,354.528809 
z"/>
<path fill="#F4F5F5" opacity="1.000000" stroke="none" 
	d="
M617.926453,299.687256 
	C613.903076,295.802002 609.925476,291.483490 605.800354,287.310822 
	C596.185303,277.585083 584.422058,271.535645 571.244873,267.268494 
	C575.749634,265.686737 585.609680,268.227539 588.808289,271.581360 
	C589.370422,272.170746 589.903564,272.982178 590.606934,273.213074 
	C600.610413,276.497406 606.464783,284.839172 613.290527,291.927521 
	C615.261841,293.974701 616.390259,296.833557 617.926453,299.687256 
z"/>
<path fill="#CAD2E1" opacity="1.000000" stroke="none" 
	d="
M348.308533,332.717529 
	C345.535645,326.442566 349.422028,316.067322 355.154022,309.803894 
	C364.868652,299.188568 377.241180,300.838531 389.420471,301.210815 
	C390.610352,301.247192 391.742096,303.184631 392.947083,304.613586 
	C385.839996,304.546204 378.644348,303.395477 371.542633,303.819153 
	C358.838928,304.576996 347.872345,319.384705 348.910767,330.989746 
	C348.952087,331.451843 348.689606,331.941101 348.308533,332.717529 
z"/>
<path fill="#CAD2E1" opacity="1.000000" stroke="none" 
	d="
M348.314850,408.700409 
	C347.725189,408.461487 347.116974,407.903290 347.119507,407.347900 
	C347.187714,392.426239 347.318604,377.504883 347.734863,362.285156 
	C348.315857,362.565765 348.851532,363.145660 348.849365,363.723541 
	C348.794037,378.609955 348.682587,393.496216 348.314850,408.700409 
z"/>
<path fill="#F6F5F4" opacity="1.000000" stroke="none" 
	d="
M684.888062,267.527954 
	C672.645569,267.943024 660.299438,267.975189 647.487061,268.022766 
	C647.804626,267.121185 648.592773,265.403992 649.371643,265.408234 
	C659.492859,265.463165 669.614380,265.715393 679.731567,266.045990 
	C681.425964,266.101379 683.100586,266.763397 684.888062,267.527954 
z"/>
<path fill="#F6F5F4" opacity="1.000000" stroke="none" 
	d="
M689.362061,415.005676 
	C688.610168,413.243835 688.262634,411.479462 687.670959,408.475739 
	C694.565674,412.894592 700.246460,416.535400 706.032410,420.496155 
	C702.718323,419.638397 699.292664,418.478882 695.882141,417.276337 
	C693.831360,416.553253 691.804260,415.763153 689.362061,415.005676 
z"/>
<path fill="#F4F5F5" opacity="1.000000" stroke="none" 
	d="
M469.672546,315.066711 
	C468.873260,320.485657 467.708618,325.967682 466.276855,331.725830 
	C463.438812,325.660645 466.174255,320.356354 469.672546,315.066711 
z"/>
<path fill="#F4F5F5" opacity="1.000000" stroke="none" 
	d="
M568.916748,266.523071 
	C563.858704,266.102051 558.721191,265.334473 553.283813,264.303284 
	C558.666443,261.799011 563.854553,263.225891 568.916748,266.523071 
z"/>
<path fill="#F4F5F5" opacity="1.000000" stroke="none" 
	d="
M480.648499,296.045166 
	C479.214355,298.910675 477.414856,301.813629 475.321167,304.883728 
	C474.493469,300.721924 475.345032,297.204773 480.648499,296.045166 
z"/>
<path fill="#F4F5F5" opacity="1.000000" stroke="none" 
	d="
M465.512787,342.081696 
	C465.866669,343.071625 465.897919,344.135040 465.885071,345.595459 
	C465.624054,344.713379 465.407135,343.434296 465.512787,342.081696 
z"/>
<path fill="#CAD2E1" opacity="1.000000" stroke="none" 
	d="
M348.268066,346.784912 
	C347.859283,345.812012 347.687012,344.612366 347.778137,343.199219 
	C348.195862,344.176514 348.350250,345.367310 348.268066,346.784912 
z"/>
<path fill="#F4F5F5" opacity="1.000000" stroke="none" 
	d="
M472.711700,309.037842 
	C472.837128,309.558105 472.671936,310.110107 472.272278,310.838745 
	C472.165558,310.366760 472.293304,309.718201 472.711700,309.037842 
z"/>
<path fill="#FAF5EE" opacity="1.000000" stroke="none" 
	d="
M355.103333,562.925964 
	C360.094574,564.321594 360.437592,566.864990 358.969147,571.248291 
	C343.018341,618.861023 338.412933,667.765808 342.676727,717.661987 
	C344.383636,737.636780 347.901154,757.255249 353.153900,776.593811 
	C353.502075,777.875610 352.777344,780.387512 351.771606,780.962219 
	C320.370087,798.906067 287.732422,806.500183 253.015030,791.049927 
	C230.411118,780.990540 213.897903,763.953674 202.201508,742.547791 
	C180.247101,702.368408 176.818314,660.794312 196.445847,618.793152 
	C207.915131,594.249939 225.837296,574.736938 249.383591,561.081055 
	C279.955505,543.350647 311.541992,545.757446 343.289764,557.851868 
	C347.172424,559.330994 350.936401,561.121582 355.103333,562.925964 
z"/>
<path fill="#F8F4E6" opacity="1.000000" stroke="none" 
	d="
M413.108551,703.640198 
	C411.212250,665.779663 414.528992,629.003662 426.950073,593.425232 
	C429.647980,585.697327 433.220673,578.274963 437.031464,570.943726 
	C444.726929,619.453979 437.221649,665.274780 413.575409,708.609924 
	C413.423828,707.103699 413.272247,705.597412 413.108551,703.640198 
z"/>
<path fill="#F9F5F0" opacity="1.000000" stroke="none" 
	d="
M760.051880,363.926788 
	C751.593811,381.988800 736.905212,387.464661 718.980347,385.839203 
	C703.534729,384.438599 691.284912,372.589386 687.552856,355.998688 
	C684.388367,341.931000 686.113586,328.301727 695.268494,316.925446 
	C703.653503,306.505890 715.236328,301.937164 728.825562,303.448029 
	C736.205261,304.268524 742.910095,306.619171 748.949646,311.208923 
	C758.172058,318.217438 762.559937,327.822540 763.822632,338.804199 
	C764.789978,347.216980 764.354797,355.755005 760.051880,363.926788 
z"/>
<path fill="#F6F5F4" opacity="1.000000" stroke="none" 
	d="
M646.993164,446.529388 
	C646.318481,445.860382 645.090637,444.725525 645.086060,443.585785 
	C644.978455,416.799622 644.989990,390.012939 645.053223,363.226501 
	C645.055603,362.217682 645.794495,361.210602 646.579224,360.103058 
	C646.982056,388.689362 646.995972,417.375305 646.993164,446.529388 
z"/>
<path fill="#F9F5F0" opacity="1.000000" stroke="none" 
	d="
M582.028564,366.851288 
	C570.622009,386.117706 545.323059,390.935120 527.628479,380.744751 
	C518.100708,375.257660 512.183533,366.651031 509.578552,356.031830 
	C506.431152,343.201355 507.873871,330.902191 515.540100,319.841583 
	C522.640808,309.596924 532.596191,304.615143 545.076233,303.865326 
	C555.562073,303.235291 564.794678,305.765594 572.964355,312.334717 
	C581.928406,319.542511 586.183105,329.106781 587.000122,340.363586 
	C587.662109,349.483826 586.268677,358.254517 582.028564,366.851288 
z"/>
<path fill="#FAF5EF" opacity="1.000000" stroke="none" 
	d="
M641.919678,370.554657 
	C641.703613,372.852997 641.437012,374.764008 641.170410,376.675018 
	C640.432556,376.667816 639.694763,376.660614 638.956970,376.653442 
	C638.817444,374.446167 638.149902,372.102875 638.674255,370.066589 
	C639.306641,367.610779 640.849060,367.908569 641.919678,370.554657 
z"/>
</svg>